<svg width="24" height="24" viewBox="0 0 24 24" fill="none" xmlns="http://www.w3.org/2000/svg">
<g id="Group">
<path id="Vector 21" d="M10.5287 9.82826L16.9374 8.27026C17.5284 8.12659 17.9277 8.85856 17.4871 9.27776L12.8109 13.7262C12.7251 13.8079 12.6656 13.9133 12.6402 14.029L11.3676 19.8186C11.2267 20.4595 10.3038 20.4323 10.2008 19.7842L9.23218 13.6867C9.20918 13.5419 9.13346 13.4107 9.01958 13.3184L4.01681 9.26343C3.51572 8.85727 3.93024 8.05587 4.55128 8.23013L10.2279 9.82298C10.3261 9.85052 10.4297 9.85234 10.5287 9.82826Z" fill="#9EFA13"/>
<path id="Polygon 5" d="M6.908 14.6474C6.97335 14.6969 7.0153 14.7713 7.02392 14.8528L7.4785 19.1507C7.51224 19.4697 7.08635 19.6083 6.92597 19.3305L2.86686 12.2999C2.70486 12.0193 3.04527 11.719 3.30347 11.9147L6.908 14.6474Z" fill="#9EFA13"/>
</g>
</svg>
